<svg xmlns="http://www.w3.org/2000/svg" width="1200" height="675" viewBox="0 0 1200 675" fill="none">
  <rect width="1200" height="675" fill="#ECFEFF"/>
  <path d="M0 476C149 422 274 424 410 484C556 548 704 544 856 470C986 407 1093 402 1200 442V675H0V476Z" fill="#0F766E"/>
  <path d="M0 532C168 474 321 478 489 544C656 610 826 609 1005 524C1085 486 1149 476 1200 489V675H0V532Z" fill="#164E63"/>
  <circle cx="977" cy="151" r="84" fill="#A5F3FC"/>
  <rect x="152" y="156" width="255" height="166" rx="18" fill="#FFFFFF" stroke="#67E8F9" stroke-width="6"/>
  <path d="M197 275L255 220L307 265L356 208" stroke="#0E7490" stroke-width="14" stroke-linecap="round" stroke-linejoin="round"/>
  <path d="M760 346C760 271 821 210 896 210C971 210 1032 271 1032 346" stroke="#4F46E5" stroke-width="18" stroke-linecap="round"/>
  <circle cx="896" cy="346" r="39" fill="#4F46E5"/>
</svg>
