<svg xmlns="http://www.w3.org/2000/svg" width="1200" height="675" viewBox="0 0 1200 675" fill="none">
  <rect width="1200" height="675" fill="#EFF6FF"/>
  <rect x="283" y="78" width="635" height="519" rx="34" fill="#FFFFFF"/>
  <path d="M493 459C393 413 362 285 433 196C504 107 642 115 705 202C750 172 821 197 850 254C880 314 843 385 783 398C764 471 689 521 612 501C585 494 562 481 543 463C527 468 510 467 493 459Z" fill="#0F172A"/>
  <path d="M508 305C550 259 620 263 657 314C689 357 676 419 635 447" stroke="#06B6D4" stroke-width="18" stroke-linecap="round"/>
  <circle cx="701" cy="269" r="37" fill="#4F46E5"/>
</svg>
