<svg xmlns="http://www.w3.org/2000/svg" width="1600" height="900" viewBox="0 0 1600 900" fill="none">
  <rect width="1600" height="900" fill="#F8FAFC"/>
  <rect x="118" y="110" width="1364" height="680" rx="40" fill="#FFFFFF" stroke="#CBD5E1" stroke-width="6"/>
  <rect x="204" y="202" width="420" height="440" rx="28" fill="#E0F2FE"/>
  <path d="M258 587H572" stroke="#0F172A" stroke-width="12" stroke-linecap="round"/>
  <path d="M286 546C338 474 375 506 421 416C466 328 514 349 559 279" stroke="#06B6D4" stroke-width="18" stroke-linecap="round" stroke-linejoin="round"/>
  <circle cx="286" cy="546" r="16" fill="#4F46E5"/>
  <circle cx="421" cy="416" r="16" fill="#4F46E5"/>
  <circle cx="559" cy="279" r="16" fill="#4F46E5"/>
  <rect x="716" y="202" width="250" height="116" rx="22" fill="#EEF2FF" stroke="#C7D2FE" stroke-width="5"/>
  <rect x="1032" y="202" width="250" height="116" rx="22" fill="#ECFEFF" stroke="#67E8F9" stroke-width="5"/>
  <rect x="716" y="394" width="566" height="216" rx="26" fill="#F8FAFC" stroke="#CBD5E1" stroke-width="5"/>
  <path d="M624 422H715" stroke="#0F172A" stroke-width="12" stroke-linecap="round"/>
  <path d="M966 260H1031" stroke="#0F172A" stroke-width="12" stroke-linecap="round"/>
  <path d="M999 318V394" stroke="#0F172A" stroke-width="12" stroke-linecap="round"/>
  <circle cx="841" cy="260" r="34" fill="#4F46E5"/>
  <circle cx="1157" cy="260" r="34" fill="#06B6D4"/>
  <path d="M774 543C830 492 876 521 924 461C967 407 1020 452 1062 422C1101 394 1136 420 1223 476" stroke="#0F172A" stroke-width="16" stroke-linecap="round" stroke-linejoin="round"/>
  <path d="M774 500C842 462 892 472 944 442C1004 407 1059 438 1122 402C1165 377 1196 396 1223 414" stroke="#06B6D4" stroke-width="10" stroke-linecap="round" stroke-dasharray="20 22"/>
  <rect x="748" y="676" width="186" height="28" rx="14" fill="#0F172A"/>
  <rect x="966" y="676" width="186" height="28" rx="14" fill="#06B6D4"/>
  <rect x="1184" y="676" width="120" height="28" rx="14" fill="#4F46E5"/>
  <path d="M258 253C292 214 346 214 380 253C414 214 468 214 502 253C536 214 590 214 624 253" stroke="#94A3B8" stroke-width="10" stroke-linecap="round"/>
</svg>
