<svg width="1600" height="900" viewBox="0 0 1600 900" fill="none" xmlns="http://www.w3.org/2000/svg">
  <rect width="1600" height="900" fill="#071A3D"/>
  <rect x="96" y="96" width="1408" height="708" rx="24" fill="#0E2A5A" stroke="#22D3EE" stroke-opacity="0.35"/>
  <circle cx="800" cy="450" r="170" stroke="#22D3EE" stroke-width="3" stroke-opacity="0.75"/>
  <circle cx="800" cy="450" r="112" fill="#1D4ED8" fill-opacity="0.35" stroke="#818CF8" stroke-width="3"/>
  <path d="M420 450H598M1002 450H1180M800 165V338M800 562V735" stroke="#22D3EE" stroke-width="4" stroke-linecap="round"/>
  <path d="M520 610C570 540 628 590 674 514C722 435 780 515 828 450C884 372 930 488 998 420C1056 362 1100 420 1152 350" stroke="#67E8F9" stroke-width="8" stroke-linecap="round"/>
  <circle cx="420" cy="450" r="20" fill="#22D3EE"/><circle cx="1180" cy="450" r="20" fill="#818CF8"/>
  <text x="800" y="840" fill="#CFFAFE" font-family="Arial, sans-serif" font-size="28" font-weight="700" text-anchor="middle" letter-spacing="3">SONIC / MULTIMODAL MOOD DETECTION</text>
</svg>
